# xmcd CD database file
#
# Track frame offsets:
#	150
#	25841
#	48566
#	84748
#	114023
#	144813
#	175353
#	208399
#	234217
#	256745
#	270851
#	297062
#
# Disc length: 4336 seconds
#
# Revision: 0
# Processed by: cddbd v1.5.2PL0 Copyright (c) Steve Scherf et al.
# Submitted via: CDex 1.51
#
DISCID=9910ee0c
DTITLE=Charles Mingus - Three Classics CD1
DYEAR=1959
DGENRE=Jazz
TTITLE0=Wednesday Night Prayer Meeting
TTITLE1=Cryin' Blues
TTITLE2=Moanin
TTITLE3=Tensions
TTITLE4=My Jelly Roll Soul
TTITLE5=E's Flat Ah's Flat Too
TTITLE6=Better Git It In Your Soul
TTITLE7=Goodbye Pork Pie Hat
TTITLE8=Boogie Stop Shuffle
TTITLE9=Self-Portrait In Three Colors
TTITLE10=Open Letter To Duke
TTITLE11=Bird Calls
EXTD=YEAR: 1959
EXTT0=
EXTT1=
EXTT2=
EXTT3=
EXTT4=
EXTT5=
EXTT6=
EXTT7=
EXTT8=
EXTT9=
EXTT10=
EXTT11=
PLAYORDER=
